# xmcd
#
# Track frame offsets:
#	150
#	15016
#	37685
#	56517
#	85298
#	103930
#	124168
#	161458
#
# Disc length: 2356 seconds
#
# Revision: 1
# Processed by: cddbd v1.5.2PL0 Copyright (c) Steve Scherf et al.
# Submitted via: audiograbber 1.83.01
#
DISCID=52093208
DTITLE=Interstate Blues - White Lightning
DYEAR=2003
DGENRE=Blues/Rock
TTITLE0=White Lightning (SS Camaro)
TTITLE1=Got A Fever
TTITLE2=Do You Love Me
TTITLE3=Set Me Free
TTITLE4=In My Head
TTITLE5=Leave The Rest Behind
TTITLE6=Tail Dragger
TTITLE7=Brown Skinned Woman
EXTD=YEAR: 2003
EXTT0=
EXTT1=
EXTT2=
EXTT3=
EXTT4=
EXTT5=
EXTT6=
EXTT7=
PLAYORDER=
